# xmcd
#
# Track frame offsets: 
#        150
#        27945
#        49350
#        73360
#        93382
#        118355
#        144682
#        170127
#        199087
#        226205
#        233900
#        257855
#        280582
#        303390
#
# Disc length: 4332 seconds
#
# Revision: 0
# Processed by: cddbd v1.5.2PL0 Copyright (c) Steve Scherf et al.
# Submitted via: ExactAudioCopy v0.99pb4
#
DISCID=d710ea0e
DTITLE=Loren - Up All Night
DYEAR=1997
DGENRE=R&B
TTITLE0=Remember
TTITLE1=Lights Out
TTITLE2=Up All Night
TTITLE3=In Too Deep
TTITLE4=What Ya Hidin' In Your Brain
TTITLE5=Things Ain't What They Used To Be
TTITLE6=Go Your Own Way
TTITLE7=Loverman
TTITLE8=Tears (Bitter Mix)
TTITLE9=Interlude
TTITLE10=I Feel Fine
TTITLE11=Just A Dream
TTITLE12=Secret Alphabet
TTITLE13=In Too Deep (Live Version)
EXTD=
EXTT0=
EXTT1=
EXTT2=
EXTT3=
EXTT4=
EXTT5=
EXTT6=
EXTT7=
EXTT8=
EXTT9=
EXTT10=
EXTT11=
EXTT12=
EXTT13=
PLAYORDER=
